<mxfile host="app.diagrams.net" modified="2022-07-14T04:17:45.114Z" agent="5.0 (Windows NT 10.0; Win64; x64) AppleWebKit/537.36 (KHTML, like Gecko) Chrome/103.0.5060.114 Safari/537.36" etag="VRMZCHKWjkVMgtlwM7Fj" version="20.1.1" type="github">
  <diagram id="kjUDZpOvQP8PrO5IYgjl" name="Page-1">
    <mxGraphModel dx="1564" dy="944" grid="1" gridSize="10" guides="1" tooltips="1" connect="1" arrows="1" fold="1" page="1" pageScale="1" pageWidth="2336" pageHeight="1654" background="#283618" math="0" shadow="0">
      <root>
        <mxCell id="0" />
        <mxCell id="1" parent="0" />
        <mxCell id="PfKXN4zF9VYR8oxulreC-7" value="" style="rounded=1;whiteSpace=wrap;html=1;sketch=0;fontFamily=Verdana;fontColor=#FEFAE0;strokeColor=#DDA15E;fillColor=#BC6C25;arcSize=5;" vertex="1" parent="1">
          <mxGeometry x="1188" y="490" width="702" height="260" as="geometry" />
        </mxCell>
        <mxCell id="PfKXN4zF9VYR8oxulreC-10" style="edgeStyle=orthogonalEdgeStyle;curved=0;rounded=1;sketch=0;orthogonalLoop=1;jettySize=auto;html=1;entryX=0;entryY=0.5;entryDx=0;entryDy=0;fontFamily=Verdana;fontSize=13;fontColor=#FEFAE0;strokeColor=#DDA15E;fillColor=#BC6C25;" edge="1" parent="1" source="PfKXN4zF9VYR8oxulreC-1" target="PfKXN4zF9VYR8oxulreC-7">
          <mxGeometry relative="1" as="geometry" />
        </mxCell>
        <mxCell id="PfKXN4zF9VYR8oxulreC-14" style="edgeStyle=orthogonalEdgeStyle;curved=0;rounded=1;sketch=0;orthogonalLoop=1;jettySize=auto;html=1;exitX=1;exitY=0.5;exitDx=0;exitDy=0;fontFamily=Verdana;fontSize=13;fontColor=#FEFAE0;strokeColor=#DDA15E;fillColor=#BC6C25;" edge="1" parent="1" source="PfKXN4zF9VYR8oxulreC-1" target="PfKXN4zF9VYR8oxulreC-12">
          <mxGeometry relative="1" as="geometry" />
        </mxCell>
        <mxCell id="PfKXN4zF9VYR8oxulreC-1" value="&lt;b&gt;&lt;font size=&quot;1&quot; face=&quot;Verdana&quot;&gt;&lt;i style=&quot;font-size: 27px;&quot;&gt;TRIM AND CHASIS&lt;/i&gt;&lt;/font&gt;&lt;/b&gt;" style="rounded=1;whiteSpace=wrap;html=1;sketch=0;fontColor=#FEFAE0;strokeColor=#DDA15E;fillColor=#BC6C25;" vertex="1" parent="1">
          <mxGeometry x="840" y="762" width="230" height="130" as="geometry" />
        </mxCell>
        <mxCell id="PfKXN4zF9VYR8oxulreC-6" value="&lt;h1&gt;LINE-2&lt;/h1&gt;&lt;p style=&quot;font-size: 18px;&quot;&gt;&lt;font style=&quot;font-size: 18px;&quot;&gt;This line basically runs for 24 hrs for 6 days (Mon-Sat) of a week on shift basis. This line majorly produces the current running models of India. Thus most of the models come with Right hand steering and MT(Transmission).&amp;nbsp;&lt;/font&gt;&lt;/p&gt;&lt;p style=&quot;font-size: 18px;&quot;&gt;&lt;font style=&quot;font-size: 18px;&quot;&gt;&lt;font style=&quot;font-size: 18px;&quot;&gt;The current models that are being assembled are :&amp;nbsp;&lt;/font&gt;&lt;span style=&quot;background-color: initial;&quot;&gt;KIGER(Reno), MAGNITE(Nissan), KWID(Reno), TRIBER(Reno).&amp;nbsp;&lt;/span&gt;&lt;/font&gt;&lt;/p&gt;" style="text;html=1;strokeColor=none;fillColor=none;spacing=5;spacingTop=-20;whiteSpace=wrap;overflow=hidden;rounded=0;sketch=0;fontFamily=Verdana;fontColor=#FEFAE0;" vertex="1" parent="1">
          <mxGeometry x="1209.75" y="515.74" width="658.5" height="208.51" as="geometry" />
        </mxCell>
        <mxCell id="PfKXN4zF9VYR8oxulreC-12" value="" style="rounded=1;whiteSpace=wrap;html=1;sketch=0;fontFamily=Verdana;fontColor=#FEFAE0;strokeColor=#DDA15E;fillColor=#BC6C25;arcSize=5;" vertex="1" parent="1">
          <mxGeometry x="1188" y="892" width="782" height="309.87" as="geometry" />
        </mxCell>
        <mxCell id="PfKXN4zF9VYR8oxulreC-13" value="&lt;h1&gt;LINE-1&lt;/h1&gt;&lt;p style=&quot;font-size: 18px;&quot;&gt;&lt;font style=&quot;font-size: 18px;&quot;&gt;This line basically runs for 24 hrs for 6 days (Mon-Sat) of a week on shift basis. This line majorly produces those models that are going to be exported to Gulf countries. Thus most of the models come with Left hand steering and AT/CVT,MT(Transmission). The frequency of AT is more whereas CVT or MT are rare on production line.&amp;nbsp;&lt;/font&gt;&lt;/p&gt;&lt;p style=&quot;font-size: 18px;&quot;&gt;&lt;font style=&quot;font-size: 18px;&quot;&gt;The current model that&#39;s being majorly produced on this line is Nissan Sunny. There is one more model which is also being produced on this line namely Nissan Kicks but the frequency of production is quite less due to the less market demand.&amp;nbsp;&lt;/font&gt;&lt;/p&gt;" style="text;html=1;strokeColor=none;fillColor=none;spacing=5;spacingTop=-20;whiteSpace=wrap;overflow=hidden;rounded=0;sketch=0;fontFamily=Verdana;fontColor=#FEFAE0;" vertex="1" parent="1">
          <mxGeometry x="1214.72" y="912.18" width="728.56" height="269.51" as="geometry" />
        </mxCell>
      </root>
    </mxGraphModel>
  </diagram>
</mxfile>
